<?xml version="1.0" encoding="utf-8"?>
<?xml-stylesheet type="text/xsl" href="rss1.xsl"?>
<rss version="2.0" xmlns:atom="http://www.w3.org/2005/Atom" xmlns:content="http://purl.org/rss/1.0/modules/content/" xmlns:dc="http://purl.org/dc/elements/1.1/" xmlns:media="http://search.yahoo.com/mrss/">
<channel>
 <title>Getty</title>
 <link>http://www.gettyimg.com/</link>
 <atom:link href="http://www.gettyimg.com/" rel="self" type="application/rss+xml" />

 
                <item>
                <title><![CDATA[【Albums (lossless)】ALAC - Griff - Vertigo (2024) [Apple Lossless 24 bits/44,1 kHz]]]></title>
                <link><![CDATA[https://sharemania.us/threads/griff-vertigo-2024-apple-lossless-24-bits-44-1-khz.249968/]]></link>
                <description><![CDATA[<article>
<blockquote class="messageText SelectQuoteContainer ugc baseHtml">
<div style="text-align: center"><img src="https://media4.giphy.com/media/v1.Y2lkPTc5MGI3NjExN3BrZXl3cmE2dDV5dWF5YXBrczloanFpNnVzMmJ3ZWJmM20wcjk0eSZlcD12MV9pbnRlcm5hbF9naWZfYnlfaWQmY3Q9Zw/GlAB79yuNjZ964MpPM/giphy.gif" class="bbCodeImage LbImage" alt="[​IMG]" data-url="https://media4.giphy.com/media/v1.Y2lkPTc5MGI3NjExN3BrZXl3cmE2dDV5dWF5YXBrczloanFpNnVzMmJ3ZWJmM20wcjk0eSZlcD12MV9pbnRlcm5hbF9naWZfYnlfaWQmY3Q9Zw/GlAB79yuNjZ964MpPM/giphy.gif" style=""><br>
<img src="https://i.ibb.co/XC7VD52/lossless.png" class="bbCodeImage LbImage" alt="[​IMG]" data-url="https://i.ibb.co/XC7VD52/lossless.png" style="">​</div>
<div class="ToggleTriggerAnchor bbCodeSpoilerContainer">
<button type="button" class="button bbCodeSpoilerButton ToggleTrigger Tooltip JsOnly" data-target="> .SpoilerTarget"><span>Spoiler: <span class="SpoilerTitle">MediaInfo</span></span></button>
<div class="SpoilerTarget bbCodeSpoilerText">
<div class="bbCodeBlock bbCodeCode">
<div class="type">Code:</div>
<pre>General
Format                                   : MPEG-4
Format profile                           : Apple audio with iTunes info
Codec ID                                 : M4A  (M4A /isom/iso2)
File size                                : 38.2 MiB
Duration                                 : 2 min 59 s
Overall bit rate mode                    : Variable
Overall bit rate                         : 1 782 kb/s
Album                                    : Vertigo
Album/Performer                          : Griff
Part/Position                            : 1
Track name                               : Vertigo
Track name/Position                      : 1
Performer                                : Griff
Composer                                 : 曾航生 &amp; Sarah Griffiths
Genre                                    : Pop
Recorded date                            : 2024-04-26
Encoded date                             : 2024-07-12 16:26:16 UTC
Tagged date                              : 2024-07-12 16:26:16 UTC
Copyright                                : under exclusive licence to Warner Music UK Limited, ℗ 2024 Griff
Cover                                    : Yes
Lyrics                                   : [00:04.35]You're scared of heights, that's vertigo / [00:06.90]You wanted lights, go see a show / [00:09.59]You ran away, that's touch and go / [00:12.26]You're scared of love, well, aren't we all? / [00:14.88]Well, aren't we all? / [00:18.97]Yeah / [00:20.26]Well, aren't we all? / [00:27.42]I know that you started to feel what I feel / [00:32.63]I could tell 'cause you took my hand by the wheel / [00:38.03]But you couldn't dare to make it real / [00:43.30]Oh, it's such a shame you left it here / [00:48.57]And I wasn't asking for a lifetime / [00:51.22]I was just asking you to take my hand / [00:53.95]Just for a minute or a night / [00:55.79]Was it too much to ask? / [00:57.66]You're scared of heights, that's vertigo / [01:00.29]You wanted lights, go see a show / [01:02.97]You ran away, that's touch and go / [01:05.63]You're scared of love, well, aren't we all? / [01:08.29]You felt alive, that's chemical / [01:10.93]You felt secure, that's called a home / [01:13.61]Couldn't take the heat, that's Mexico / [01:16.18]You're scared of love, well, aren't we all? / [01:18.96]Well, aren't we all? / [01:29.93]I thought that I could be the one to change you / [01:32.60]I thought that I could be the one to prove / [01:35.19]I'm used to fixing broken things before / [01:37.57]I thought maybe I could fix you too / [01:40.48]I wasn't asking for a lifetime / [01:43.38]I was just asking you to take my hand / [01:45.84]For just a minute or a night / [01:47.80]Was it too much to ask? / [01:51.03]You're scared of heights, that's vertigo / [01:53.55]You wanted lights, go see a show / [01:56.23]You ran away, that's touch and go / [01:58.91]You're scared of love, well, aren't we all? / [02:01.55]You felt alive, that's chemical / [02:04.22]You felt secure, that's called a home / [02:06.95]Couldn't take the heat, that's Mexico / [02:09.64]You're scared of love, well, aren't we all? / [02:12.20]Said don't look down / [02:13.68]And then you do / [02:14.95]You put your past on me and you / [02:17.62]Think you got problems, I have too / [02:20.29]You ran from love, that's nothing new / [02:22.88]You're scared of heights, that's vertigo / [02:25.59]You wanted lights, go see a show / [02:28.36]You ran away, that's touch and go / [02:30.98]You're scared of love, well, aren't we all? / [02:33.66]Well, aren't we all? / [02:36.99]Yeah / [02:44.34]You're scared of heights, that's vertigo / [02:47.00]You wanted lights, go see a show / [02:49.64]You ran away, that's touch and go / [02:52.32]You're scared of love, well, aren't we all? / [02:54.92]Well, aren't we all?

Audio
ID                                       : 2
Format                                   : ALAC
Codec ID                                 : alac
Codec ID/Info                            : Apple Lossless Audio Codec
Duration                                 : 2 min 59 s
Duration_LastFrame                       : -57 ms
Bit rate mode                            : Variable
Bit rate                                 : 1 597 kb/s
Nominal bit rate                         : 2 117 kb/s
Channel(s)                               : 2 channels
Sampling rate                            : 44.1 kHz
Bit depth                                : 24 bits
Stream size                              : 34.2 MiB (90%)
Default                                  : Yes
Alternate group                          : 1
Encoded date                             : 2024-07-12 16:26:16 UTC
Tagged date                              : 2024-07-12 16:26:16 UTC
</pre>
</div></div>
</div><b>Released:</b> July 12, 2024<br>
<b>Source:</b> Apple<br>
<b>File Size:</b> 3 GB<br>
<b>Tracklist:</b><br>
01 Vertigo<br>
02 Miss Me Too<br>
03 Into The Walls<br>
04 19th Hour<br>
05 Astronaut<br>
06 Anything<br>
07 Pillow In My Arms<br>
08 Cycles<br>
09 Tears For Fun<br>
10 Hiding Alone<br>
11 Hole In My Pocket<br>
12 Everlasting<br>
13 So Fast<br>
14 Where Did You Go<br>
15 <img src="https://i.ibb.co/TqVF5Dg/video.png" class="bbCodeImage LbImage" alt="[​IMG]" data-url="https://i.ibb.co/TqVF5Dg/video.png" style=""> Astronaut (Live from Roundhouse, 2024)<br>
16 <img src="https://i.ibb.co/TqVF5Dg/video.png" class="bbCodeImage LbImage" alt="[​IMG]" data-url="https://i.ibb.co/TqVF5Dg/video.png" style=""> So Fast (Live from Roundhouse, 2024)<br>
17 <img src="https://i.ibb.co/TqVF5Dg/video.png" class="bbCodeImage LbImage" alt="[​IMG]" data-url="https://i.ibb.co/TqVF5Dg/video.png" style=""> Tears For Fun (Visualiser Video)<br>
18 <img src="https://i.ibb.co/TqVF5Dg/video.png" class="bbCodeImage LbImage" alt="[​IMG]" data-url="https://i.ibb.co/TqVF5Dg/video.png" style=""> Hiding Alone (Visualiser Video)<br>
19 <img src="https://i.ibb.co/TqVF5Dg/video.png" class="bbCodeImage LbImage" alt="[​IMG]" data-url="https://i.ibb.co/TqVF5Dg/video.png" style=""> Where Did You Go (Visualiser Video)<br>
<div class="bbCodeBlock bbCodeVfcHH HiddenContent">
<div class="attribution type">Hidden Content:</div>
<blockquote>You must reply before you can see the hidden data contained here.</blockquote>
</div>
<div class="messageTextEndMarker">&nbsp;</div>
</blockquote>
</article>]]></description>
                <author><![CDATA[itunesboy]]></author>
                </item>

                
                <item>
                <title><![CDATA[【Singles (lossless)】ALAC - Katy Perry - WOMAN'S WORLD - EP (2024) [Apple Lossless 24 bits/48 kHz]]]></title>
                <link><![CDATA[https://sharemania.us/threads/katy-perry-womans-world-ep-2024-apple-lossless-24-bits-48-khz.249969/]]></link>
                <description><![CDATA[<article>
<blockquote class="messageText SelectQuoteContainer ugc baseHtml">
<img src="https://a5.mzstatic.com/us/r1000/0/Music211/v4/b3/a8/36/b3a8362c-1f7f-8db9-1842-20167b69dd47/24UMGIM74416.rgb.jpg" class="bbCodeImage LbImage" alt="[​IMG]" data-url="https://a5.mzstatic.com/us/r1000/0/Music211/v4/b3/a8/36/b3a8362c-1f7f-8db9-1842-20167b69dd47/24UMGIM74416.rgb.jpg" style=""><br>
<div style="text-align: center"><img src="https://i.ibb.co/XC7VD52/lossless.png" class="bbCodeImage LbImage" alt="[​IMG]" data-url="https://i.ibb.co/XC7VD52/lossless.png" style=""><img src="https://i.ibb.co/gFcyKB4/adm.png" class="bbCodeImage LbImage" alt="[​IMG]" data-url="https://i.ibb.co/gFcyKB4/adm.png" style="">​</div>
<div class="ToggleTriggerAnchor bbCodeSpoilerContainer">
<button type="button" class="button bbCodeSpoilerButton ToggleTrigger Tooltip JsOnly" data-target="> .SpoilerTarget"><span>Spoiler: <span class="SpoilerTitle">MediaInfo</span></span></button>
<div class="SpoilerTarget bbCodeSpoilerText">
<div class="bbCodeBlock bbCodeCode">
<div class="type">Code:</div>
<pre>General
Format                                   : MPEG-4
Format profile                           : Apple audio with iTunes info
Codec ID                                 : M4A  (M4A /isom/iso2)
File size                                : 37.7 MiB
Duration                                 : 2 min 43 s
Overall bit rate mode                    : Variable
Overall bit rate                         : 1 940 kb/s
Album                                    : WOMAN’S WORLD - EP
Album/Performer                          : Katy Perry
Part/Position                            : 1
Track name                               : WOMAN’S WORLD
Track name/Position                      : 1
Performer                                : Katy Perry
Composer                                 : Katy Perry, Aaron Joseph, Chloe Angelides, Lukasz Gottwald, Rocco Valdes &amp; Vaughn Oliver
Genre                                    : Pop
Recorded date                            : 2024-07-11
Encoded date                             : 2024-07-15 08:15:56 UTC
Tagged date                              : 2024-07-15 08:15:56 UTC
Copyright                                : ℗ 2024 Capitol Records, LLC
Cover                                    : Yes
Lyrics                                   : [00:00.00]It's a woman's world, and you're lucky to be living in it / [00:07.78]Sexy, confident / [00:11.74]So intelligent / [00:15.74]She is Heaven-sent / [00:19.24]So soft, so strong / [00:23.28]She's a winner, champion / [00:27.28]Superhuman, number one / [00:31.30]She's a sister, she's a mother / [00:35.18]Open your eyes, just look around, and you'll discover you know / [00:39.94]It's a woman's world, and you're lucky to be living in it (Uh-huh, uh-huh) / [00:47.90]It's a woman's world, and you're lucky to be living in it (Uh-huh, uh-huh) / [00:55.15]You better celebrate / [00:59.14]'Cause baby, we ain't going away, oh / [01:03.90]It's a woman's world, and you're lucky to be living in it (Uh-huh, uh-huh) / [01:11.86]Fire in her eyes / [01:15.78]Feminine divine / [01:19.75]She was born to shine / [01:23.35]To shine, to shine, yeah / [01:27.35]She's a flower, she's a thorn / [01:31.32]Superhuman, number one / [01:35.28]She's a sister, she's a mother / [01:39.14]Open your eyes, just look around, and you'll discover you know / [01:43.94]It's a woman's world, and you're lucky to be living in it (Uh-huh, uh-huh) / [01:51.86]It's a woman's world, and you're lucky to be living in it (Uh-huh, uh-huh) / [01:58.40]You better celebrate (Celebrate) / [02:03.14]'Cause baby, we ain't going away, oh / [02:07.88]It's a woman's world, and you're lucky to be living in it (Uh-huh) / [02:13.90]Lucky to be living in it / [02:18.66]Woo! Uh-huh / [02:21.89]Lucky to be living in it / [02:25.38]That's right, it's a woman's world / [02:28.44]Uh-huh / [02:29.46]And you're lucky to be living in it / [02:38.42]Uh-huh

Audio
ID                                       : 2
Format                                   : ALAC
Codec ID                                 : alac
Codec ID/Info                            : Apple Lossless Audio Codec
Duration                                 : 2 min 43 s
Duration_LastFrame                       : -72 ms
Bit rate mode                            : Variable
Bit rate                                 : 1 843 kb/s
Nominal bit rate                         : 2 304 kb/s
Channel(s)                               : 2 channels
Sampling rate                            : 48.0 kHz
Bit depth                                : 24 bits
Stream size                              : 35.8 MiB (95%)
Default                                  : Yes
Alternate group                          : 1
Encoded date                             : 2024-07-15 08:15:56 UTC
Tagged date                              : 2024-07-15 08:15:56 UTC
</pre>
</div></div>
</div><b>Released:</b> July 15, 2024<br>
<b>Source:</b> Apple<br>
<b>File Size:</b> 230 MB<br>
<b>Tracklist:</b><br>
01 WOMAN’S WORLD<br>
02 WOMAN’S WORLD (BRB Woman Version)<br>
03 WOMAN’S WORLD (Doing The Most Woman Version)<br>
04 WOMAN’S WORLD (Transcendental Woman Version)<br>
05 WOMAN’S WORLD (Super Woman Version)<br>
06 WOMAN’S WORLD (Naked Woman Version)<br>
<div class="bbCodeBlock bbCodeVfcHH HiddenContent">
<div class="attribution type">Hidden Content:</div>
<blockquote>You must reply before you can see the hidden data contained here.</blockquote>
</div>
<div class="messageTextEndMarker">&nbsp;</div>
</blockquote>
</article>]]></description>
                <author><![CDATA[itunesboy]]></author>
                </item>

                
                <item>
                <title><![CDATA[【HD Live Performances】WEB-RiP - Sabrina Carpenter - Please, Please Please (Radio 1's Live Lounge) [ 1080p | 25fps | DDP5.1 | 768kbps | 48.0kHz ]]]></title>
                <link><![CDATA[https://sharemania.us/threads/sabrina-carpenter-please-please-please-radio-1s-live-lounge-1080p-25fps-ddp5-1-768kbps-48-0khz.249970/]]></link>
                <description><![CDATA[<article>
<blockquote class="messageText SelectQuoteContainer ugc baseHtml">
thanks
<div class="messageTextEndMarker">&nbsp;</div>
</blockquote>
</article>]]></description>
                <author><![CDATA[Richard Bowen]]></author>
                </item>

                </channel></rss>